<svg fill="none" xmlns="http://www.w3.org/2000/svg">
<path d="M28.5967 12.9753L23.8368 17.749C23.6698 17.9165 23.5863 18.2515 23.6698 18.419C24.4214 20.1777 23.9204 22.2714 22.1667 23.4439C20.8306 24.3652 18.9935 24.3652 17.6574 23.5277C15.3192 22.0202 15.1522 18.9215 16.9893 17.079C18.2419 15.8228 19.9955 15.5715 21.4987 16.1578C21.7492 16.2415 21.9997 16.2415 22.2502 16.074L27.0101 11.3003C27.3441 10.9653 27.2606 10.5466 26.9266 10.2954C22.2502 6.86165 15.5697 7.2804 11.3944 11.5516C6.96851 16.074 6.885 23.3602 11.0603 28.0501C15.6532 33.1588 23.5863 33.3263 28.3462 28.4688C32.5215 24.2814 32.9391 17.749 29.6823 13.0591C29.3483 12.8078 28.8472 12.7241 28.5967 12.9753Z" fill="currentColor">
</path>
</svg>